<svg xmlns="http://www.w3.org/2000/svg" width="48.742" height="51.927" viewBox="0 0 48.742 51.927">
  <g id="medicine" transform="translate(0)">
    <g id="Groupe_2" data-name="Groupe 2" transform="translate(10.141 12.778)">
      <g id="Groupe_1" data-name="Groupe 1" transform="translate(0)">
        <path id="Tracé_2" data-name="Tracé 2" d="M116.71,125.994a1.014,1.014,0,1,0,1.014,1.014A1.015,1.015,0,0,0,116.71,125.994Z" transform="translate(-115.696 -125.994)" fill="#fff"/>
      </g>
    </g>
    <g id="Groupe_4" data-name="Groupe 4" transform="translate(11.156 27.686)">
      <g id="Groupe_3" data-name="Groupe 3" transform="translate(0)">
        <path id="Tracé_3" data-name="Tracé 3" d="M134.823,277.043h-3.042V274a1.014,1.014,0,1,0-2.028,0v3.042H126.71a1.014,1.014,0,1,0,0,2.028h3.042v3.042a1.014,1.014,0,1,0,2.028,0v-3.042h3.042a1.014,1.014,0,1,0,0-2.028Z" transform="translate(-125.696 -272.986)" fill="#e8e4e6"/>
      </g>
    </g>
    <g id="Groupe_6" data-name="Groupe 6" transform="translate(0)">
      <g id="Groupe_5" data-name="Groupe 5" transform="translate(0)">
        <path id="Tracé_4" data-name="Tracé 4" d="M63.355,32.655a8.108,8.108,0,0,0-11.082-2.969l-4.119,2.378V23.257a5.107,5.107,0,0,0-1.014-3.042l-5.071-6.761V10.575A3.047,3.047,0,0,0,44.1,7.707V3.042A3.046,3.046,0,0,0,41.055,0H22.8a3.046,3.046,0,0,0-3.042,3.042V7.707a3.047,3.047,0,0,0,2.028,2.868v2.879l-5.071,6.761A5.107,5.107,0,0,0,15.7,23.257V42.9a5.076,5.076,0,0,0,5.071,5.071h16.3A8.1,8.1,0,0,0,48.09,50.837l12.3-7.1A8.119,8.119,0,0,0,63.355,32.655ZM21.786,3.042A1.015,1.015,0,0,1,22.8,2.028H41.054a1.015,1.015,0,0,1,1.014,1.014V7.707a1.015,1.015,0,0,1-1.014,1.014H22.8a1.015,1.015,0,0,1-1.014-1.014V3.042ZM18.338,21.432,23.611,14.4a1.014,1.014,0,0,0,.2-.609V10.75H40.04v2.028H30.913a1.014,1.014,0,1,0,0,2.028h9.634l4.969,6.625A3.069,3.069,0,0,1,46.1,22.92H17.751A3.067,3.067,0,0,1,18.338,21.432ZM20.772,45.94A3.046,3.046,0,0,1,17.729,42.9V41.874H36.155a8.126,8.126,0,0,0,.049,4.067H20.772ZM36.95,39.856H17.729V24.948h28.4v8.287l-6.148,3.55A8.053,8.053,0,0,0,36.95,39.856ZM47.076,49.08a6.085,6.085,0,1,1-6.085-10.539l5.5-3.178L52.581,45.9Zm12.3-7.1-5.034,2.907L48.253,34.349l5.034-2.906a6.085,6.085,0,1,1,6.085,10.539Z" transform="translate(-15.701)" fill="#e8e4e6"/>
      </g>
    </g>
  </g>
</svg>
