<svg xmlns="http://www.w3.org/2000/svg" width="51.926" height="51.927" viewBox="0 0 51.926 51.927">
  <g id="pharmacy" transform="translate(-0.001)">
    <g id="Groupe_8" data-name="Groupe 8" transform="translate(0.001)">
      <g id="Groupe_7" data-name="Groupe 7" transform="translate(0)">
        <path id="Tracé_5" data-name="Tracé 5" d="M51.536,5.758a1.014,1.014,0,0,0-.873-.182L45.838,6.8a9.641,9.641,0,0,1-2.372.3H36.385a4.589,4.589,0,0,0-4.562,3.919,2.572,2.572,0,0,1-2.557,2.2h-.259V11.1a5.967,5.967,0,1,0-6.085,0v2.119h-.259a2.572,2.572,0,0,1-2.557-2.2A4.589,4.589,0,0,0,15.543,7.1H8.462A9.635,9.635,0,0,1,6.09,6.8L1.265,5.576A1.014,1.014,0,0,0,0,6.559a8.166,8.166,0,0,0,2.175,5.553,7.85,7.85,0,0,0,3,6.075l.954,1.275A11.636,11.636,0,0,0,15.4,24.106a11.5,11.5,0,0,0,7.521-2.774v3.617h-.91a6.56,6.56,0,0,0-5.748,9.719,1.014,1.014,0,0,0,1.777-.979,4.532,4.532,0,0,1,3.971-6.712h.91v9.06H20.538a4.851,4.851,0,0,0,0,9.7h2.82a26.23,26.23,0,0,0,1.687,5.572,1.014,1.014,0,0,0,.932.615h0a1.014,1.014,0,0,0,.932-.618l.02-.047a26.233,26.233,0,0,0,1.65-5.521h1.152a2.079,2.079,0,1,1,0,4.158h-.069a1.014,1.014,0,1,0,0,2.028h.069a4.107,4.107,0,0,0,0-8.215H28.87a26.48,26.48,0,0,0,.137-2.691V38.066h.676a6.558,6.558,0,0,0,0-13.117h-.676V21.332a11.5,11.5,0,0,0,7.521,2.774A11.636,11.636,0,0,0,45.8,19.463l.954-1.275a7.849,7.849,0,0,0,3-6.075,8.165,8.165,0,0,0,2.175-5.553A1.015,1.015,0,0,0,51.536,5.758ZM22.119,19.316A9.5,9.5,0,0,1,15.4,22.078,9.6,9.6,0,0,1,9.261,19.84c.255.025.512.038.774.038h1.7a1.014,1.014,0,0,0,0-2.028h-1.7a5.842,5.842,0,0,1-5.528-3.976,8.144,8.144,0,0,0,3.691.882h2.1a1.014,1.014,0,0,0,0-2.028H8.2A6.18,6.18,0,0,1,2.176,7.9l3.414.868a11.659,11.659,0,0,0,2.872.359h7.081a2.572,2.572,0,0,1,2.557,2.2,4.589,4.589,0,0,0,4.562,3.919h.259v3.279Zm-1.58,24.4a2.823,2.823,0,0,1,0-5.646h2.383V40.96a26.5,26.5,0,0,0,.144,2.751H20.538Zm6.44-2.691a24.14,24.14,0,0,1-1.005,6.918A24.131,24.131,0,0,1,24.95,40.96V38.066h2.028v2.955Zm0-4.983H24.95V11.845a5.886,5.886,0,0,0,2.028,0Zm2.7-9.06a4.53,4.53,0,0,1,0,9.06h-.676v-9.06h.676ZM25.964,9.9A3.938,3.938,0,1,1,29.9,5.967,3.943,3.943,0,0,1,25.964,9.9Zm17.767,2.823h-2.1a1.014,1.014,0,0,0,0,2.028h2.1a8.143,8.143,0,0,0,3.691-.882,5.842,5.842,0,0,1-5.528,3.976H40.2a1.014,1.014,0,1,0,0,2.028h1.7c.261,0,.519-.013.773-.038a9.6,9.6,0,0,1-6.139,2.238,9.5,9.5,0,0,1-6.718-2.761l-.8-.794V15.243h.259a4.589,4.589,0,0,0,4.562-3.919,2.572,2.572,0,0,1,2.557-2.2h7.081a11.661,11.661,0,0,0,2.872-.359L49.752,7.9A6.18,6.18,0,0,1,43.731,12.728Z" transform="translate(-0.001)" fill="#e8e4e6"/>
      </g>
    </g>
    <g id="Groupe_10" data-name="Groupe 10" transform="translate(20.893 49.898)">
      <g id="Groupe_9" data-name="Groupe 9">
        <path id="Tracé_6" data-name="Tracé 6" d="M207.732,492.3a1.013,1.013,0,1,0,.3.717A1.021,1.021,0,0,0,207.732,492.3Z" transform="translate(-206.001 -492.001)" fill="#e8e4e6"/>
      </g>
    </g>
  </g>
</svg>
