<svg xmlns="http://www.w3.org/2000/svg" width="38.47" height="52.071" viewBox="0 0 38.47 52.071">
  <g id="pin" transform="translate(-48.08)">
    <g id="Groupe_12" data-name="Groupe 12" transform="translate(48.08)">
      <g id="Groupe_11" data-name="Groupe 11">
        <path id="Tracé_7" data-name="Tracé 7" d="M67.315,0A19.257,19.257,0,0,0,48.08,19.235a22.192,22.192,0,0,0,1.632,7.406A31.02,31.02,0,0,0,51.935,30.8L65.123,50.782a2.509,2.509,0,0,0,4.383,0L82.7,30.8a30.891,30.891,0,0,0,2.223-4.158,22.187,22.187,0,0,0,1.63-7.406A19.257,19.257,0,0,0,67.315,0ZM82.833,25.763a28.422,28.422,0,0,1-2.026,3.79L67.617,49.537c-.26.395-.343.395-.6,0L53.825,29.553A28.436,28.436,0,0,1,51.8,25.762a20.145,20.145,0,0,1-1.455-6.526,16.972,16.972,0,1,1,33.944,0A20.161,20.161,0,0,1,82.833,25.763Z" transform="translate(-48.08)" fill="#e8e4e6"/>
        <path id="Tracé_8" data-name="Tracé 8" d="M122.263,64.008a10.183,10.183,0,1,0,10.183,10.183A10.2,10.2,0,0,0,122.263,64.008Zm0,18.1a7.92,7.92,0,1,1,7.92-7.92A7.93,7.93,0,0,1,122.263,82.112Z" transform="translate(-103.028 -54.955)" fill="#e8e4e6"/>
      </g>
    </g>
  </g>
</svg>
